<mxfile host="app.diagrams.net" modified="2024-01-09T09:02:31.355Z" agent="Mozilla/5.0 (Windows NT 10.0; Win64; x64) AppleWebKit/537.36 (KHTML, like Gecko) Chrome/120.0.0.0 Safari/537.36" etag="MB55ODI76p2OPWy0mbfY" version="22.1.17" type="github">
  <diagram name="第 1 页" id="cSXOt_If06tRuQNw9_Id">
    <mxGraphModel dx="2421" dy="962" grid="1" gridSize="10" guides="1" tooltips="1" connect="1" arrows="1" fold="1" page="1" pageScale="1" pageWidth="583" pageHeight="827" math="0" shadow="0">
      <root>
        <mxCell id="0" />
        <mxCell id="1" parent="0" />
        <mxCell id="Mtfviob82MPcd9y9G0oO-23" value="" style="endArrow=classic;html=1;rounded=0;exitX=0.5;exitY=1;exitDx=0;exitDy=0;entryX=0.5;entryY=0;entryDx=0;entryDy=0;fillColor=#f8cecc;strokeColor=#b85450;" parent="1" source="D2HSwKxdKyaoGHdWPaQV-44" target="D2HSwKxdKyaoGHdWPaQV-61" edge="1">
          <mxGeometry width="50" height="50" relative="1" as="geometry">
            <mxPoint x="1060" y="830" as="sourcePoint" />
            <mxPoint x="1110" y="780" as="targetPoint" />
          </mxGeometry>
        </mxCell>
        <mxCell id="Mtfviob82MPcd9y9G0oO-50" value="" style="endArrow=classic;html=1;rounded=0;exitX=0.5;exitY=1;exitDx=0;exitDy=0;entryX=0.5;entryY=0;entryDx=0;entryDy=0;fillColor=#f8cecc;strokeColor=#b85450;" parent="1" source="D2HSwKxdKyaoGHdWPaQV-35" target="D2HSwKxdKyaoGHdWPaQV-72" edge="1">
          <mxGeometry width="50" height="50" relative="1" as="geometry">
            <mxPoint x="880" y="860" as="sourcePoint" />
            <mxPoint x="930" y="810" as="targetPoint" />
          </mxGeometry>
        </mxCell>
        <mxCell id="Mtfviob82MPcd9y9G0oO-20" value="" style="endArrow=classic;html=1;rounded=0;exitX=0.5;exitY=1;exitDx=0;exitDy=0;entryX=0.5;entryY=0;entryDx=0;entryDy=0;fillColor=#f8cecc;strokeColor=#b85450;" parent="1" source="D2HSwKxdKyaoGHdWPaQV-47" target="D2HSwKxdKyaoGHdWPaQV-61" edge="1">
          <mxGeometry width="50" height="50" relative="1" as="geometry">
            <mxPoint x="800" y="790" as="sourcePoint" />
            <mxPoint x="850" y="740" as="targetPoint" />
          </mxGeometry>
        </mxCell>
        <mxCell id="Mtfviob82MPcd9y9G0oO-71" value="" style="endArrow=classic;html=1;rounded=0;exitX=0.5;exitY=1;exitDx=0;exitDy=0;entryX=0.5;entryY=0;entryDx=0;entryDy=0;fillColor=#f8cecc;strokeColor=#b85450;" parent="1" source="D2HSwKxdKyaoGHdWPaQV-36" target="D2HSwKxdKyaoGHdWPaQV-61" edge="1">
          <mxGeometry width="50" height="50" relative="1" as="geometry">
            <mxPoint x="880" y="780" as="sourcePoint" />
            <mxPoint x="930" y="730" as="targetPoint" />
          </mxGeometry>
        </mxCell>
        <mxCell id="Mtfviob82MPcd9y9G0oO-2" value="" style="endArrow=classic;html=1;rounded=0;exitX=0.5;exitY=1;exitDx=0;exitDy=0;entryX=0.5;entryY=0;entryDx=0;entryDy=0;fillColor=#f8cecc;strokeColor=#b85450;" parent="1" source="D2HSwKxdKyaoGHdWPaQV-35" target="D2HSwKxdKyaoGHdWPaQV-61" edge="1">
          <mxGeometry width="50" height="50" relative="1" as="geometry">
            <mxPoint x="630" y="790" as="sourcePoint" />
            <mxPoint x="680" y="740" as="targetPoint" />
          </mxGeometry>
        </mxCell>
        <mxCell id="D2HSwKxdKyaoGHdWPaQV-6" value="&lt;font style=&quot;font-size: 15px;&quot;&gt;政府政策与预算&lt;/font&gt;" style="text;html=1;strokeColor=none;fillColor=none;align=center;verticalAlign=middle;whiteSpace=wrap;rounded=0;" parent="1" vertex="1">
          <mxGeometry x="1380" y="90" width="119" height="30" as="geometry" />
        </mxCell>
        <mxCell id="D2HSwKxdKyaoGHdWPaQV-8" value="&lt;font style=&quot;font-size: 15px;&quot;&gt;相关企业管理&lt;/font&gt;" style="text;html=1;strokeColor=none;fillColor=none;align=center;verticalAlign=middle;whiteSpace=wrap;rounded=0;" parent="1" vertex="1">
          <mxGeometry x="1399" y="417" width="100" height="30" as="geometry" />
        </mxCell>
        <mxCell id="D2HSwKxdKyaoGHdWPaQV-9" value="&lt;font style=&quot;font-size: 15px;&quot;&gt;技术和业务管&lt;/font&gt;理" style="text;html=1;strokeColor=none;fillColor=none;align=center;verticalAlign=middle;whiteSpace=wrap;rounded=0;" parent="1" vertex="1">
          <mxGeometry x="1380" y="890" width="119" height="30" as="geometry" />
        </mxCell>
        <mxCell id="D2HSwKxdKyaoGHdWPaQV-10" value="&lt;font style=&quot;font-size: 15px;&quot;&gt;事故进程与人员活动&lt;/font&gt;" style="text;html=1;strokeColor=none;fillColor=none;align=center;verticalAlign=middle;whiteSpace=wrap;rounded=0;" parent="1" vertex="1">
          <mxGeometry x="1350" y="1410" width="149" height="30" as="geometry" />
        </mxCell>
        <mxCell id="D2HSwKxdKyaoGHdWPaQV-11" value="&lt;font style=&quot;font-size: 15px;&quot;&gt;设备与周围环境&lt;/font&gt;" style="text;html=1;strokeColor=none;fillColor=none;align=center;verticalAlign=middle;whiteSpace=wrap;rounded=0;" parent="1" vertex="1">
          <mxGeometry x="1380" y="1783" width="119" height="30" as="geometry" />
        </mxCell>
        <mxCell id="D2HSwKxdKyaoGHdWPaQV-16" value="g01&lt;br&gt;安全发展理念不牢" style="rounded=0;whiteSpace=wrap;html=1;" parent="1" vertex="1">
          <mxGeometry x="380.5" y="30" width="125" height="40" as="geometry" />
        </mxCell>
        <mxCell id="D2HSwKxdKyaoGHdWPaQV-20" value="r01&lt;br&gt;安全监管不力" style="rounded=0;whiteSpace=wrap;html=1;" parent="1" vertex="1">
          <mxGeometry x="170.5" y="160" width="120" height="40" as="geometry" />
        </mxCell>
        <mxCell id="Tey20wOVT-5CfHOspJdX-31" style="edgeStyle=orthogonalEdgeStyle;curved=1;rounded=0;orthogonalLoop=1;jettySize=auto;html=1;exitX=0.5;exitY=1;exitDx=0;exitDy=0;entryX=0.5;entryY=0;entryDx=0;entryDy=0;fillColor=#f8cecc;strokeColor=#b85450;" parent="1" source="D2HSwKxdKyaoGHdWPaQV-21" target="D2HSwKxdKyaoGHdWPaQV-31" edge="1">
          <mxGeometry relative="1" as="geometry">
            <mxPoint x="-70" y="460" as="targetPoint" />
            <Array as="points">
              <mxPoint x="585" y="240" />
              <mxPoint x="-123" y="240" />
            </Array>
          </mxGeometry>
        </mxCell>
        <mxCell id="U7l6EVNEB7PfGx6SXFJ--22" style="edgeStyle=orthogonalEdgeStyle;curved=1;rounded=0;orthogonalLoop=1;jettySize=auto;html=1;exitX=0.5;exitY=1;exitDx=0;exitDy=0;entryX=0.5;entryY=0;entryDx=0;entryDy=0;fillColor=#f8cecc;strokeColor=#b85450;" edge="1" parent="1" source="D2HSwKxdKyaoGHdWPaQV-21" target="D2HSwKxdKyaoGHdWPaQV-32">
          <mxGeometry relative="1" as="geometry">
            <Array as="points">
              <mxPoint x="585" y="310" />
              <mxPoint x="73" y="310" />
            </Array>
          </mxGeometry>
        </mxCell>
        <mxCell id="U7l6EVNEB7PfGx6SXFJ--26" style="edgeStyle=orthogonalEdgeStyle;curved=1;rounded=0;orthogonalLoop=1;jettySize=auto;html=1;exitX=0.5;exitY=1;exitDx=0;exitDy=0;entryX=0.5;entryY=0;entryDx=0;entryDy=0;fillColor=#f8cecc;strokeColor=#b85450;" edge="1" parent="1" source="D2HSwKxdKyaoGHdWPaQV-21" target="7SNBnwVA3aRYyQUwE5cQ-3">
          <mxGeometry relative="1" as="geometry">
            <Array as="points">
              <mxPoint x="585" y="230" />
              <mxPoint x="1265" y="230" />
            </Array>
          </mxGeometry>
        </mxCell>
        <mxCell id="U7l6EVNEB7PfGx6SXFJ--27" style="edgeStyle=orthogonalEdgeStyle;curved=1;rounded=0;orthogonalLoop=1;jettySize=auto;html=1;exitX=0.5;exitY=1;exitDx=0;exitDy=0;entryX=0.5;entryY=0;entryDx=0;entryDy=0;fillColor=#f8cecc;strokeColor=#b85450;" edge="1" parent="1" source="D2HSwKxdKyaoGHdWPaQV-21" target="cpaYwVjUg7fbwdwy47s0-7">
          <mxGeometry relative="1" as="geometry" />
        </mxCell>
        <mxCell id="D2HSwKxdKyaoGHdWPaQV-21" value="r02&lt;br&gt;执法检查不严" style="rounded=0;whiteSpace=wrap;html=1;" parent="1" vertex="1">
          <mxGeometry x="524.5" y="160" width="120" height="40" as="geometry" />
        </mxCell>
        <mxCell id="Tey20wOVT-5CfHOspJdX-33" style="edgeStyle=none;rounded=0;orthogonalLoop=1;jettySize=auto;html=1;exitX=0.5;exitY=1;exitDx=0;exitDy=0;entryX=0.5;entryY=0;entryDx=0;entryDy=0;fillColor=#f8cecc;strokeColor=#b85450;" parent="1" source="D2HSwKxdKyaoGHdWPaQV-25" target="D2HSwKxdKyaoGHdWPaQV-46" edge="1">
          <mxGeometry relative="1" as="geometry">
            <mxPoint x="290" y="790" as="targetPoint" />
          </mxGeometry>
        </mxCell>
        <mxCell id="D2HSwKxdKyaoGHdWPaQV-25" value="c01&lt;br&gt;违规出具虚假安全评价报告" style="rounded=0;whiteSpace=wrap;html=1;" parent="1" vertex="1">
          <mxGeometry x="-260" y="350" width="150" height="40" as="geometry" />
        </mxCell>
        <mxCell id="U7l6EVNEB7PfGx6SXFJ--35" style="edgeStyle=orthogonalEdgeStyle;curved=1;rounded=0;orthogonalLoop=1;jettySize=auto;html=1;exitX=0;exitY=0.5;exitDx=0;exitDy=0;entryX=0.156;entryY=0.033;entryDx=0;entryDy=0;entryPerimeter=0;fillColor=#f8cecc;strokeColor=#b85450;" edge="1" parent="1" source="D2HSwKxdKyaoGHdWPaQV-26" target="7SNBnwVA3aRYyQUwE5cQ-16">
          <mxGeometry relative="1" as="geometry">
            <Array as="points">
              <mxPoint x="-250" y="380" />
              <mxPoint x="-250" y="1030" />
              <mxPoint x="-251" y="1030" />
            </Array>
          </mxGeometry>
        </mxCell>
        <mxCell id="D2HSwKxdKyaoGHdWPaQV-26" value="c02&lt;br&gt;违规提供技术服务工作" style="rounded=0;whiteSpace=wrap;html=1;" parent="1" vertex="1">
          <mxGeometry x="-40" y="360" width="137" height="40" as="geometry" />
        </mxCell>
        <mxCell id="Tey20wOVT-5CfHOspJdX-32" style="edgeStyle=orthogonalEdgeStyle;curved=1;rounded=0;orthogonalLoop=1;jettySize=auto;html=1;exitX=1;exitY=0.5;exitDx=0;exitDy=0;entryX=0;entryY=0.5;entryDx=0;entryDy=0;fillColor=#f8cecc;strokeColor=#b85450;" parent="1" source="D2HSwKxdKyaoGHdWPaQV-28" target="cpaYwVjUg7fbwdwy47s0-6" edge="1">
          <mxGeometry relative="1" as="geometry" />
        </mxCell>
        <mxCell id="Tey20wOVT-5CfHOspJdX-82" style="edgeStyle=none;rounded=0;orthogonalLoop=1;jettySize=auto;html=1;exitX=0.5;exitY=1;exitDx=0;exitDy=0;entryX=0.5;entryY=0;entryDx=0;entryDy=0;fillColor=#f8cecc;strokeColor=#b85450;" parent="1" source="D2HSwKxdKyaoGHdWPaQV-28" target="D2HSwKxdKyaoGHdWPaQV-42" edge="1">
          <mxGeometry relative="1" as="geometry" />
        </mxCell>
        <mxCell id="Tey20wOVT-5CfHOspJdX-83" style="edgeStyle=none;rounded=0;orthogonalLoop=1;jettySize=auto;html=1;exitX=0.5;exitY=1;exitDx=0;exitDy=0;entryX=0.5;entryY=0;entryDx=0;entryDy=0;fillColor=#f8cecc;strokeColor=#b85450;" parent="1" source="D2HSwKxdKyaoGHdWPaQV-28" target="cpaYwVjUg7fbwdwy47s0-11" edge="1">
          <mxGeometry relative="1" as="geometry" />
        </mxCell>
        <mxCell id="Tey20wOVT-5CfHOspJdX-96" style="rounded=0;orthogonalLoop=1;jettySize=auto;html=1;exitX=0.5;exitY=1;exitDx=0;exitDy=0;entryX=0.5;entryY=0;entryDx=0;entryDy=0;fillColor=#f8cecc;strokeColor=#b85450;" parent="1" source="D2HSwKxdKyaoGHdWPaQV-28" target="D2HSwKxdKyaoGHdWPaQV-47" edge="1">
          <mxGeometry relative="1" as="geometry" />
        </mxCell>
        <mxCell id="Tey20wOVT-5CfHOspJdX-116" style="edgeStyle=orthogonalEdgeStyle;curved=1;rounded=0;orthogonalLoop=1;jettySize=auto;html=1;exitX=0.5;exitY=1;exitDx=0;exitDy=0;entryX=1;entryY=0.5;entryDx=0;entryDy=0;fillColor=#f8cecc;strokeColor=#b85450;" parent="1" source="D2HSwKxdKyaoGHdWPaQV-28" target="D2HSwKxdKyaoGHdWPaQV-43" edge="1">
          <mxGeometry relative="1" as="geometry">
            <Array as="points">
              <mxPoint x="590" y="400" />
              <mxPoint x="590" y="815" />
            </Array>
          </mxGeometry>
        </mxCell>
        <mxCell id="U7l6EVNEB7PfGx6SXFJ--41" style="edgeStyle=none;rounded=0;orthogonalLoop=1;jettySize=auto;html=1;exitX=0.5;exitY=1;exitDx=0;exitDy=0;entryX=0;entryY=0;entryDx=0;entryDy=0;fillColor=#f8cecc;strokeColor=#b85450;" edge="1" parent="1" source="D2HSwKxdKyaoGHdWPaQV-28" target="7SNBnwVA3aRYyQUwE5cQ-11">
          <mxGeometry relative="1" as="geometry" />
        </mxCell>
        <mxCell id="U7l6EVNEB7PfGx6SXFJ--42" style="edgeStyle=none;rounded=0;orthogonalLoop=1;jettySize=auto;html=1;exitX=0.5;exitY=1;exitDx=0;exitDy=0;entryX=0.5;entryY=0;entryDx=0;entryDy=0;fillColor=#f8cecc;strokeColor=#b85450;" edge="1" parent="1" source="D2HSwKxdKyaoGHdWPaQV-28" target="7SNBnwVA3aRYyQUwE5cQ-13">
          <mxGeometry relative="1" as="geometry" />
        </mxCell>
        <mxCell id="D2HSwKxdKyaoGHdWPaQV-28" value="c04&lt;br&gt;安全生产责任未落实" style="rounded=0;whiteSpace=wrap;html=1;" parent="1" vertex="1">
          <mxGeometry x="490" y="360" width="158" height="40" as="geometry" />
        </mxCell>
        <mxCell id="Tey20wOVT-5CfHOspJdX-124" style="edgeStyle=orthogonalEdgeStyle;curved=1;rounded=0;orthogonalLoop=1;jettySize=auto;html=1;exitX=0.5;exitY=1;exitDx=0;exitDy=0;entryX=0.5;entryY=0;entryDx=0;entryDy=0;fillColor=#f8cecc;strokeColor=#b85450;" parent="1" source="D2HSwKxdKyaoGHdWPaQV-31" target="D2HSwKxdKyaoGHdWPaQV-63" edge="1">
          <mxGeometry relative="1" as="geometry">
            <Array as="points">
              <mxPoint x="-123" y="900" />
              <mxPoint x="950" y="900" />
            </Array>
          </mxGeometry>
        </mxCell>
        <mxCell id="D2HSwKxdKyaoGHdWPaQV-31" value="t01&lt;br&gt;应急预案编制与组织演练存在缺陷" style="rounded=0;whiteSpace=wrap;html=1;" parent="1" vertex="1">
          <mxGeometry x="-192.5" y="546" width="139" height="80" as="geometry" />
        </mxCell>
        <mxCell id="Tey20wOVT-5CfHOspJdX-85" style="edgeStyle=orthogonalEdgeStyle;curved=1;rounded=0;orthogonalLoop=1;jettySize=auto;html=1;exitX=0.5;exitY=1;exitDx=0;exitDy=0;entryX=0.5;entryY=0;entryDx=0;entryDy=0;fillColor=#f8cecc;strokeColor=#b85450;" parent="1" source="D2HSwKxdKyaoGHdWPaQV-32" target="D2HSwKxdKyaoGHdWPaQV-68" edge="1">
          <mxGeometry relative="1" as="geometry">
            <Array as="points">
              <mxPoint x="73" y="630" />
              <mxPoint x="70" y="630" />
              <mxPoint x="70" y="920" />
              <mxPoint x="245" y="920" />
            </Array>
          </mxGeometry>
        </mxCell>
        <mxCell id="D2HSwKxdKyaoGHdWPaQV-32" value="t02&lt;br&gt;安全生产教育培训和技能培训存在缺陷" style="rounded=0;whiteSpace=wrap;html=1;" parent="1" vertex="1">
          <mxGeometry y="556" width="145.25" height="70" as="geometry" />
        </mxCell>
        <mxCell id="U7l6EVNEB7PfGx6SXFJ--15" style="edgeStyle=orthogonalEdgeStyle;curved=1;rounded=0;orthogonalLoop=1;jettySize=auto;html=1;exitX=0.5;exitY=0;exitDx=0;exitDy=0;entryX=0.5;entryY=0;entryDx=0;entryDy=0;fillColor=#f8cecc;strokeColor=#b85450;" edge="1" parent="1" source="D2HSwKxdKyaoGHdWPaQV-43" target="D2HSwKxdKyaoGHdWPaQV-46">
          <mxGeometry relative="1" as="geometry" />
        </mxCell>
        <mxCell id="U7l6EVNEB7PfGx6SXFJ--51" style="edgeStyle=orthogonalEdgeStyle;curved=1;rounded=0;orthogonalLoop=1;jettySize=auto;html=1;exitX=0.5;exitY=1;exitDx=0;exitDy=0;fillColor=#f8cecc;strokeColor=#b85450;" edge="1" parent="1" source="D2HSwKxdKyaoGHdWPaQV-43">
          <mxGeometry relative="1" as="geometry">
            <mxPoint x="30" y="970" as="targetPoint" />
          </mxGeometry>
        </mxCell>
        <mxCell id="D2HSwKxdKyaoGHdWPaQV-43" value="t08&lt;br&gt;施工方案和技术交底不完善" style="rounded=0;whiteSpace=wrap;html=1;" parent="1" vertex="1">
          <mxGeometry x="-207.5" y="790" width="97.5" height="50" as="geometry" />
        </mxCell>
        <mxCell id="D2HSwKxdKyaoGHdWPaQV-44" value="t09&lt;br&gt;对施工单位、技术服务公司、承包商等监管不到位" style="rounded=0;whiteSpace=wrap;html=1;" parent="1" vertex="1">
          <mxGeometry x="195" y="812" width="103" height="60" as="geometry" />
        </mxCell>
        <mxCell id="Tey20wOVT-5CfHOspJdX-68" style="edgeStyle=orthogonalEdgeStyle;curved=1;rounded=0;orthogonalLoop=1;jettySize=auto;html=1;exitX=0.5;exitY=0;exitDx=0;exitDy=0;entryX=0.5;entryY=0;entryDx=0;entryDy=0;fillColor=#f8cecc;strokeColor=#b85450;" parent="1" source="cpaYwVjUg7fbwdwy47s0-15" target="D2HSwKxdKyaoGHdWPaQV-60" edge="1">
          <mxGeometry relative="1" as="geometry" />
        </mxCell>
        <mxCell id="D2HSwKxdKyaoGHdWPaQV-60" value="s04&lt;br&gt;盲目抢修作业与施救" style="rounded=0;whiteSpace=wrap;html=1;" parent="1" vertex="1">
          <mxGeometry x="710" y="970" width="132.5" height="50" as="geometry" />
        </mxCell>
        <mxCell id="Tey20wOVT-5CfHOspJdX-74" style="edgeStyle=none;rounded=0;orthogonalLoop=1;jettySize=auto;html=1;exitX=0.5;exitY=1;exitDx=0;exitDy=0;entryX=0.5;entryY=0;entryDx=0;entryDy=0;fillColor=#f8cecc;strokeColor=#b85450;" parent="1" source="D2HSwKxdKyaoGHdWPaQV-61" target="7SNBnwVA3aRYyQUwE5cQ-19" edge="1">
          <mxGeometry relative="1" as="geometry" />
        </mxCell>
        <mxCell id="Tey20wOVT-5CfHOspJdX-75" style="edgeStyle=none;rounded=0;orthogonalLoop=1;jettySize=auto;html=1;exitX=0.5;exitY=1;exitDx=0;exitDy=0;fillColor=#f8cecc;strokeColor=#b85450;" parent="1" source="D2HSwKxdKyaoGHdWPaQV-61" edge="1">
          <mxGeometry relative="1" as="geometry">
            <mxPoint y="1320" as="targetPoint" />
          </mxGeometry>
        </mxCell>
        <mxCell id="D2HSwKxdKyaoGHdWPaQV-61" value="s08&lt;br&gt;作业未履行职责或遵守规程和安全协议" style="rounded=0;whiteSpace=wrap;html=1;" parent="1" vertex="1">
          <mxGeometry x="364" y="1140" width="110" height="60" as="geometry" />
        </mxCell>
        <mxCell id="D2HSwKxdKyaoGHdWPaQV-63" value="s05&lt;br&gt;应急处理能力较差" style="rounded=0;whiteSpace=wrap;html=1;" parent="1" vertex="1">
          <mxGeometry x="890" y="975" width="120" height="40" as="geometry" />
        </mxCell>
        <mxCell id="Tey20wOVT-5CfHOspJdX-91" style="edgeStyle=orthogonalEdgeStyle;curved=1;rounded=0;orthogonalLoop=1;jettySize=auto;html=1;exitX=0.75;exitY=0;exitDx=0;exitDy=0;entryX=0.5;entryY=0;entryDx=0;entryDy=0;fillColor=#f8cecc;strokeColor=#b85450;" parent="1" source="D2HSwKxdKyaoGHdWPaQV-65" target="D2HSwKxdKyaoGHdWPaQV-60" edge="1">
          <mxGeometry relative="1" as="geometry">
            <Array as="points">
              <mxPoint x="58" y="940" />
              <mxPoint x="776" y="940" />
            </Array>
          </mxGeometry>
        </mxCell>
        <mxCell id="D2HSwKxdKyaoGHdWPaQV-65" value="s01&lt;br&gt;员工风险识别不足" style="rounded=0;whiteSpace=wrap;html=1;" parent="1" vertex="1">
          <mxGeometry x="-32.5" y="970" width="120" height="40" as="geometry" />
        </mxCell>
        <mxCell id="Tey20wOVT-5CfHOspJdX-70" style="edgeStyle=orthogonalEdgeStyle;curved=1;rounded=0;orthogonalLoop=1;jettySize=auto;html=1;exitX=0.75;exitY=0;exitDx=0;exitDy=0;entryX=0.5;entryY=0;entryDx=0;entryDy=0;fillColor=#f8cecc;strokeColor=#b85450;" parent="1" source="D2HSwKxdKyaoGHdWPaQV-68" target="D2HSwKxdKyaoGHdWPaQV-60" edge="1">
          <mxGeometry relative="1" as="geometry" />
        </mxCell>
        <mxCell id="U7l6EVNEB7PfGx6SXFJ--39" style="edgeStyle=none;rounded=0;orthogonalLoop=1;jettySize=auto;html=1;exitX=0.5;exitY=1;exitDx=0;exitDy=0;entryX=0.5;entryY=0;entryDx=0;entryDy=0;fillColor=#f8cecc;strokeColor=#b85450;" edge="1" parent="1" source="D2HSwKxdKyaoGHdWPaQV-68" target="D2HSwKxdKyaoGHdWPaQV-72">
          <mxGeometry relative="1" as="geometry" />
        </mxCell>
        <mxCell id="D2HSwKxdKyaoGHdWPaQV-68" value="s02&lt;br&gt;员工安全意识较差" style="rounded=0;whiteSpace=wrap;html=1;" parent="1" vertex="1">
          <mxGeometry x="185" y="990" width="120" height="40" as="geometry" />
        </mxCell>
        <mxCell id="Tey20wOVT-5CfHOspJdX-92" style="edgeStyle=orthogonalEdgeStyle;curved=1;rounded=0;orthogonalLoop=1;jettySize=auto;html=1;exitX=0;exitY=0.5;exitDx=0;exitDy=0;entryX=1;entryY=0.5;entryDx=0;entryDy=0;fillColor=#f8cecc;strokeColor=#b85450;" parent="1" source="D2HSwKxdKyaoGHdWPaQV-70" target="D2HSwKxdKyaoGHdWPaQV-61" edge="1">
          <mxGeometry relative="1" as="geometry" />
        </mxCell>
        <mxCell id="D2HSwKxdKyaoGHdWPaQV-70" value="s09&lt;br&gt;员工劳动纪律涣散且无责任心" style="rounded=0;whiteSpace=wrap;html=1;" parent="1" vertex="1">
          <mxGeometry x="782" y="1140" width="92.5" height="60" as="geometry" />
        </mxCell>
        <mxCell id="D2HSwKxdKyaoGHdWPaQV-71" value="s03&lt;br&gt;专业知识技能掌握不熟练" style="rounded=0;whiteSpace=wrap;html=1;" parent="1" vertex="1">
          <mxGeometry x="470" y="962.5" width="90" height="55" as="geometry" />
        </mxCell>
        <mxCell id="Tey20wOVT-5CfHOspJdX-94" style="edgeStyle=orthogonalEdgeStyle;curved=1;rounded=0;orthogonalLoop=1;jettySize=auto;html=1;exitX=0.25;exitY=0;exitDx=0;exitDy=0;" parent="1" source="D2HSwKxdKyaoGHdWPaQV-72" edge="1">
          <mxGeometry relative="1" as="geometry">
            <mxPoint x="23.142857142857338" y="1159.571428571429" as="targetPoint" />
          </mxGeometry>
        </mxCell>
        <mxCell id="Tey20wOVT-5CfHOspJdX-110" style="edgeStyle=orthogonalEdgeStyle;curved=1;rounded=0;orthogonalLoop=1;jettySize=auto;html=1;exitX=0.5;exitY=1;exitDx=0;exitDy=0;entryX=0.5;entryY=1;entryDx=0;entryDy=0;fillColor=#f8cecc;strokeColor=#b85450;" parent="1" source="D2HSwKxdKyaoGHdWPaQV-72" target="cpaYwVjUg7fbwdwy47s0-14" edge="1">
          <mxGeometry relative="1" as="geometry" />
        </mxCell>
        <mxCell id="D2HSwKxdKyaoGHdWPaQV-72" value="s07&lt;br&gt;现场安全管理缺失" style="rounded=0;whiteSpace=wrap;html=1;" parent="1" vertex="1">
          <mxGeometry x="-20" y="1160" width="170" height="40" as="geometry" />
        </mxCell>
        <mxCell id="cpaYwVjUg7fbwdwy47s0-5" value="c03&lt;br&gt;施工质量或设备设计未达标" style="rounded=0;whiteSpace=wrap;html=1;" parent="1" vertex="1">
          <mxGeometry x="270" y="360" width="150" height="40" as="geometry" />
        </mxCell>
        <mxCell id="cpaYwVjUg7fbwdwy47s0-6" value="c05&lt;br&gt;对所属企业安全生产监督指导不力" style="rounded=0;whiteSpace=wrap;html=1;" parent="1" vertex="1">
          <mxGeometry x="719.5" y="360" width="187" height="40" as="geometry" />
        </mxCell>
        <mxCell id="Tey20wOVT-5CfHOspJdX-114" style="edgeStyle=none;rounded=0;orthogonalLoop=1;jettySize=auto;html=1;exitX=0.5;exitY=1;exitDx=0;exitDy=0;entryX=0.5;entryY=0;entryDx=0;entryDy=0;fillColor=#f8cecc;strokeColor=#b85450;" parent="1" source="cpaYwVjUg7fbwdwy47s0-7" target="D2HSwKxdKyaoGHdWPaQV-42" edge="1">
          <mxGeometry relative="1" as="geometry" />
        </mxCell>
        <mxCell id="U7l6EVNEB7PfGx6SXFJ--50" style="edgeStyle=orthogonalEdgeStyle;curved=1;rounded=0;orthogonalLoop=1;jettySize=auto;html=1;exitX=0.25;exitY=0;exitDx=0;exitDy=0;entryX=0.5;entryY=0;entryDx=0;entryDy=0;fillColor=#f8cecc;strokeColor=#b85450;" edge="1" parent="1" source="cpaYwVjUg7fbwdwy47s0-7" target="D2HSwKxdKyaoGHdWPaQV-28">
          <mxGeometry relative="1" as="geometry">
            <Array as="points">
              <mxPoint x="1004" y="340" />
              <mxPoint x="569" y="340" />
            </Array>
          </mxGeometry>
        </mxCell>
        <mxCell id="U7l6EVNEB7PfGx6SXFJ--52" style="edgeStyle=none;rounded=0;orthogonalLoop=1;jettySize=auto;html=1;exitX=0.5;exitY=1;exitDx=0;exitDy=0;entryX=1;entryY=0;entryDx=0;entryDy=0;fillColor=#f8cecc;strokeColor=#b85450;" edge="1" parent="1" source="cpaYwVjUg7fbwdwy47s0-7" target="D2HSwKxdKyaoGHdWPaQV-31">
          <mxGeometry relative="1" as="geometry" />
        </mxCell>
        <mxCell id="U7l6EVNEB7PfGx6SXFJ--53" style="edgeStyle=none;rounded=0;orthogonalLoop=1;jettySize=auto;html=1;exitX=0.5;exitY=1;exitDx=0;exitDy=0;entryX=0.5;entryY=0;entryDx=0;entryDy=0;fillColor=#f8cecc;strokeColor=#b85450;" edge="1" parent="1" source="cpaYwVjUg7fbwdwy47s0-7" target="D2HSwKxdKyaoGHdWPaQV-32">
          <mxGeometry relative="1" as="geometry" />
        </mxCell>
        <mxCell id="U7l6EVNEB7PfGx6SXFJ--54" style="edgeStyle=none;rounded=0;orthogonalLoop=1;jettySize=auto;html=1;exitX=0.5;exitY=1;exitDx=0;exitDy=0;entryX=0.5;entryY=0;entryDx=0;entryDy=0;fillColor=#f8cecc;strokeColor=#b85450;" edge="1" parent="1" source="cpaYwVjUg7fbwdwy47s0-7" target="D2HSwKxdKyaoGHdWPaQV-36">
          <mxGeometry relative="1" as="geometry" />
        </mxCell>
        <mxCell id="U7l6EVNEB7PfGx6SXFJ--55" style="edgeStyle=none;rounded=0;orthogonalLoop=1;jettySize=auto;html=1;exitX=0.5;exitY=1;exitDx=0;exitDy=0;entryX=0.5;entryY=0;entryDx=0;entryDy=0;fillColor=#f8cecc;strokeColor=#b85450;" edge="1" parent="1" source="cpaYwVjUg7fbwdwy47s0-7" target="D2HSwKxdKyaoGHdWPaQV-47">
          <mxGeometry relative="1" as="geometry" />
        </mxCell>
        <mxCell id="U7l6EVNEB7PfGx6SXFJ--58" style="edgeStyle=none;rounded=0;orthogonalLoop=1;jettySize=auto;html=1;exitX=0.5;exitY=1;exitDx=0;exitDy=0;entryX=0.5;entryY=0;entryDx=0;entryDy=0;fillColor=#f8cecc;strokeColor=#b85450;" edge="1" parent="1" source="cpaYwVjUg7fbwdwy47s0-7" target="D2HSwKxdKyaoGHdWPaQV-44">
          <mxGeometry relative="1" as="geometry" />
        </mxCell>
        <mxCell id="cpaYwVjUg7fbwdwy47s0-7" value="c06&lt;br&gt;安全检查和管理制度存在缺陷" style="rounded=0;whiteSpace=wrap;html=1;" parent="1" vertex="1">
          <mxGeometry x="961.25" y="360" width="169" height="40" as="geometry" />
        </mxCell>
        <mxCell id="cpaYwVjUg7fbwdwy47s0-11" value="t13&lt;br&gt;违反建设项目安全设施“三同时”规定" style="rounded=0;whiteSpace=wrap;html=1;" parent="1" vertex="1">
          <mxGeometry x="996.5" y="780" width="99" height="60" as="geometry" />
        </mxCell>
        <mxCell id="cpaYwVjUg7fbwdwy47s0-14" value="s10&lt;br&gt;对交接（替）班和巡视制度落实不到位" style="rounded=0;whiteSpace=wrap;html=1;" parent="1" vertex="1">
          <mxGeometry x="-197.5" y="1160" width="115" height="55" as="geometry" />
        </mxCell>
        <mxCell id="cpaYwVjUg7fbwdwy47s0-15" value="s06&lt;br&gt;防护措施执行不到位" style="rounded=0;whiteSpace=wrap;html=1;" parent="1" vertex="1">
          <mxGeometry x="1120" y="970" width="130" height="50" as="geometry" />
        </mxCell>
        <mxCell id="Tey20wOVT-5CfHOspJdX-35" style="edgeStyle=orthogonalEdgeStyle;curved=1;rounded=0;orthogonalLoop=1;jettySize=auto;html=1;exitX=0.5;exitY=0;exitDx=0;exitDy=0;entryX=0.5;entryY=0;entryDx=0;entryDy=0;fillColor=#f8cecc;strokeColor=#b85450;" parent="1" source="cpaYwVjUg7fbwdwy47s0-17" target="7SNBnwVA3aRYyQUwE5cQ-30" edge="1">
          <mxGeometry relative="1" as="geometry" />
        </mxCell>
        <mxCell id="cpaYwVjUg7fbwdwy47s0-17" value="e01&lt;br&gt;密闭环境通风不良" style="rounded=0;whiteSpace=wrap;html=1;" parent="1" vertex="1">
          <mxGeometry x="-105" y="1500" width="120" height="40" as="geometry" />
        </mxCell>
        <mxCell id="7SNBnwVA3aRYyQUwE5cQ-1" value="g02&lt;br&gt;属地安全生产责任制未贯彻落实" style="rounded=0;whiteSpace=wrap;html=1;" parent="1" vertex="1">
          <mxGeometry x="644.5" y="30" width="180" height="40" as="geometry" />
        </mxCell>
        <mxCell id="Tey20wOVT-5CfHOspJdX-59" style="edgeStyle=orthogonalEdgeStyle;curved=1;rounded=0;orthogonalLoop=1;jettySize=auto;html=1;exitX=1;exitY=0.5;exitDx=0;exitDy=0;entryX=1;entryY=0.5;entryDx=0;entryDy=0;fillColor=#f8cecc;strokeColor=#b85450;" parent="1" source="7SNBnwVA3aRYyQUwE5cQ-2" target="7SNBnwVA3aRYyQUwE5cQ-14" edge="1">
          <mxGeometry relative="1" as="geometry">
            <mxPoint x="1048.7499999999995" y="210" as="sourcePoint" />
            <mxPoint x="1379.9999999999995" y="767" as="targetPoint" />
            <Array as="points">
              <mxPoint x="1380" y="190" />
              <mxPoint x="1380" y="806" />
            </Array>
          </mxGeometry>
        </mxCell>
        <mxCell id="7SNBnwVA3aRYyQUwE5cQ-2" value="r03&lt;br&gt;违规审批许可" style="rounded=0;whiteSpace=wrap;html=1;" parent="1" vertex="1">
          <mxGeometry x="920" y="170" width="120" height="40" as="geometry" />
        </mxCell>
        <mxCell id="U7l6EVNEB7PfGx6SXFJ--29" style="edgeStyle=orthogonalEdgeStyle;curved=1;rounded=0;orthogonalLoop=1;jettySize=auto;html=1;exitX=1;exitY=0.5;exitDx=0;exitDy=0;entryX=1;entryY=1;entryDx=0;entryDy=0;fillColor=#f8cecc;strokeColor=#b85450;" edge="1" parent="1" source="7SNBnwVA3aRYyQUwE5cQ-3" target="7SNBnwVA3aRYyQUwE5cQ-32">
          <mxGeometry relative="1" as="geometry">
            <Array as="points">
              <mxPoint x="1400" y="380" />
              <mxPoint x="1400" y="1580" />
              <mxPoint x="935" y="1580" />
            </Array>
          </mxGeometry>
        </mxCell>
        <mxCell id="7SNBnwVA3aRYyQUwE5cQ-3" value="c07&lt;br&gt;安全生产投入严重不足" style="rounded=0;whiteSpace=wrap;html=1;" parent="1" vertex="1">
          <mxGeometry x="1190" y="360" width="150" height="40" as="geometry" />
        </mxCell>
        <mxCell id="7SNBnwVA3aRYyQUwE5cQ-13" value="t10&lt;br&gt;物资采购管理存在漏洞" style="rounded=0;whiteSpace=wrap;html=1;" parent="1" vertex="1">
          <mxGeometry x="497" y="797" width="80" height="60" as="geometry" />
        </mxCell>
        <mxCell id="U7l6EVNEB7PfGx6SXFJ--36" style="edgeStyle=none;rounded=0;orthogonalLoop=1;jettySize=auto;html=1;exitX=1;exitY=0.5;exitDx=0;exitDy=0;fillColor=#f8cecc;strokeColor=#b85450;" edge="1" parent="1" source="7SNBnwVA3aRYyQUwE5cQ-16">
          <mxGeometry relative="1" as="geometry">
            <mxPoint x="360" y="1170" as="targetPoint" />
          </mxGeometry>
        </mxCell>
        <mxCell id="7SNBnwVA3aRYyQUwE5cQ-16" value="s11&lt;br&gt;员工不具备从业资格" style="rounded=0;whiteSpace=wrap;html=1;" parent="1" vertex="1">
          <mxGeometry x="-270" y="1030" width="120" height="40" as="geometry" />
        </mxCell>
        <mxCell id="Tey20wOVT-5CfHOspJdX-67" style="edgeStyle=orthogonalEdgeStyle;curved=1;rounded=0;orthogonalLoop=1;jettySize=auto;html=1;exitX=0.5;exitY=1;exitDx=0;exitDy=0;entryX=0;entryY=0.5;entryDx=0;entryDy=0;fillColor=#f8cecc;strokeColor=#b85450;" parent="1" source="7SNBnwVA3aRYyQUwE5cQ-17" target="7SNBnwVA3aRYyQUwE5cQ-31" edge="1">
          <mxGeometry relative="1" as="geometry">
            <Array as="points">
              <mxPoint y="1590" />
              <mxPoint x="420" y="1590" />
              <mxPoint x="420" y="1664" />
            </Array>
          </mxGeometry>
        </mxCell>
        <mxCell id="Tey20wOVT-5CfHOspJdX-76" style="edgeStyle=none;rounded=0;orthogonalLoop=1;jettySize=auto;html=1;exitX=1;exitY=0.5;exitDx=0;exitDy=0;entryX=0;entryY=0.5;entryDx=0;entryDy=0;fillColor=#f8cecc;strokeColor=#b85450;" parent="1" source="7SNBnwVA3aRYyQUwE5cQ-17" target="7SNBnwVA3aRYyQUwE5cQ-19" edge="1">
          <mxGeometry relative="1" as="geometry" />
        </mxCell>
        <mxCell id="Tey20wOVT-5CfHOspJdX-77" style="edgeStyle=orthogonalEdgeStyle;curved=1;rounded=0;orthogonalLoop=1;jettySize=auto;html=1;exitX=1;exitY=0;exitDx=0;exitDy=0;entryX=0.5;entryY=0;entryDx=0;entryDy=0;fillColor=#f8cecc;strokeColor=#b85450;" parent="1" source="7SNBnwVA3aRYyQUwE5cQ-17" target="7SNBnwVA3aRYyQUwE5cQ-20" edge="1">
          <mxGeometry relative="1" as="geometry" />
        </mxCell>
        <mxCell id="U7l6EVNEB7PfGx6SXFJ--14" style="edgeStyle=orthogonalEdgeStyle;curved=1;rounded=0;orthogonalLoop=1;jettySize=auto;html=1;exitX=1;exitY=0;exitDx=0;exitDy=0;entryX=0.5;entryY=0;entryDx=0;entryDy=0;fillColor=#f8cecc;strokeColor=#b85450;" edge="1" parent="1" source="7SNBnwVA3aRYyQUwE5cQ-17" target="7SNBnwVA3aRYyQUwE5cQ-21">
          <mxGeometry relative="1" as="geometry">
            <Array as="points">
              <mxPoint x="82" y="1280" />
              <mxPoint x="1135" y="1280" />
            </Array>
          </mxGeometry>
        </mxCell>
        <mxCell id="7SNBnwVA3aRYyQUwE5cQ-17" value="s12&lt;br&gt;发生泄露事故" style="rounded=0;whiteSpace=wrap;html=1;" parent="1" vertex="1">
          <mxGeometry x="-82.5" y="1320" width="165" height="40" as="geometry" />
        </mxCell>
        <mxCell id="U7l6EVNEB7PfGx6SXFJ--3" style="edgeStyle=none;rounded=0;orthogonalLoop=1;jettySize=auto;html=1;exitX=1;exitY=0.5;exitDx=0;exitDy=0;entryX=0;entryY=0.5;entryDx=0;entryDy=0;fillColor=#f8cecc;strokeColor=#b85450;" edge="1" parent="1" source="7SNBnwVA3aRYyQUwE5cQ-19" target="7SNBnwVA3aRYyQUwE5cQ-20">
          <mxGeometry relative="1" as="geometry" />
        </mxCell>
        <mxCell id="7SNBnwVA3aRYyQUwE5cQ-19" value="s13&lt;br&gt;发生火灾事故" style="rounded=0;whiteSpace=wrap;html=1;" parent="1" vertex="1">
          <mxGeometry x="270" y="1320" width="170" height="40" as="geometry" />
        </mxCell>
        <mxCell id="7SNBnwVA3aRYyQUwE5cQ-20" value="s14&lt;br&gt;发生爆炸事故" style="rounded=0;whiteSpace=wrap;html=1;" parent="1" vertex="1">
          <mxGeometry x="719.5" y="1320" width="170" height="40" as="geometry" />
        </mxCell>
        <mxCell id="7SNBnwVA3aRYyQUwE5cQ-21" value="s15&lt;br&gt;发生中毒窒息事故" style="rounded=0;whiteSpace=wrap;html=1;" parent="1" vertex="1">
          <mxGeometry x="1050" y="1320" width="170" height="40" as="geometry" />
        </mxCell>
        <mxCell id="Tey20wOVT-5CfHOspJdX-66" style="edgeStyle=orthogonalEdgeStyle;curved=1;rounded=0;orthogonalLoop=1;jettySize=auto;html=1;exitX=0.25;exitY=1;exitDx=0;exitDy=0;entryX=0.5;entryY=1;entryDx=0;entryDy=0;fillColor=#f8cecc;strokeColor=#b85450;" parent="1" source="7SNBnwVA3aRYyQUwE5cQ-25" target="7SNBnwVA3aRYyQUwE5cQ-17" edge="1">
          <mxGeometry relative="1" as="geometry">
            <Array as="points">
              <mxPoint x="304" y="1730" />
              <mxPoint x="-220" y="1730" />
              <mxPoint x="-220" y="1360" />
            </Array>
          </mxGeometry>
        </mxCell>
        <mxCell id="U7l6EVNEB7PfGx6SXFJ--6" style="edgeStyle=orthogonalEdgeStyle;curved=1;rounded=0;orthogonalLoop=1;jettySize=auto;html=1;exitX=0.5;exitY=0;exitDx=0;exitDy=0;entryX=0.5;entryY=0;entryDx=0;entryDy=0;fillColor=#f8cecc;strokeColor=#b85450;" edge="1" parent="1" source="7SNBnwVA3aRYyQUwE5cQ-25" target="7SNBnwVA3aRYyQUwE5cQ-30">
          <mxGeometry relative="1" as="geometry" />
        </mxCell>
        <mxCell id="7SNBnwVA3aRYyQUwE5cQ-25" value="e09&lt;br&gt;密封或隔离失效致泄露" style="rounded=0;whiteSpace=wrap;html=1;" parent="1" vertex="1">
          <mxGeometry x="270" y="1649" width="135.5" height="40" as="geometry" />
        </mxCell>
        <mxCell id="Tey20wOVT-5CfHOspJdX-4" style="edgeStyle=orthogonalEdgeStyle;curved=1;rounded=0;orthogonalLoop=1;jettySize=auto;html=1;exitX=0.5;exitY=0;exitDx=0;exitDy=0;entryX=0.5;entryY=0;entryDx=0;entryDy=0;fillColor=#f8cecc;strokeColor=#b85450;" parent="1" source="7SNBnwVA3aRYyQUwE5cQ-26" target="7SNBnwVA3aRYyQUwE5cQ-31" edge="1">
          <mxGeometry relative="1" as="geometry" />
        </mxCell>
        <mxCell id="Tey20wOVT-5CfHOspJdX-89" style="edgeStyle=orthogonalEdgeStyle;curved=1;rounded=0;orthogonalLoop=1;jettySize=auto;html=1;exitX=0.5;exitY=1;exitDx=0;exitDy=0;entryX=0.5;entryY=1;entryDx=0;entryDy=0;fillColor=#f8cecc;strokeColor=#b85450;" parent="1" source="7SNBnwVA3aRYyQUwE5cQ-26" target="7SNBnwVA3aRYyQUwE5cQ-20" edge="1">
          <mxGeometry relative="1" as="geometry">
            <Array as="points">
              <mxPoint x="-45" y="1740" />
              <mxPoint x="804" y="1740" />
            </Array>
          </mxGeometry>
        </mxCell>
        <mxCell id="U7l6EVNEB7PfGx6SXFJ--47" style="edgeStyle=orthogonalEdgeStyle;rounded=0;orthogonalLoop=1;jettySize=auto;html=1;exitX=0.5;exitY=1;exitDx=0;exitDy=0;entryX=0.5;entryY=1;entryDx=0;entryDy=0;curved=1;fillColor=#f8cecc;strokeColor=#b85450;" edge="1" parent="1" source="7SNBnwVA3aRYyQUwE5cQ-26" target="7SNBnwVA3aRYyQUwE5cQ-34">
          <mxGeometry relative="1" as="geometry">
            <Array as="points">
              <mxPoint x="-45" y="1750" />
              <mxPoint x="1020" y="1750" />
            </Array>
          </mxGeometry>
        </mxCell>
        <mxCell id="U7l6EVNEB7PfGx6SXFJ--49" style="edgeStyle=orthogonalEdgeStyle;curved=1;rounded=0;orthogonalLoop=1;jettySize=auto;html=1;exitX=0.5;exitY=1;exitDx=0;exitDy=0;entryX=0.5;entryY=1;entryDx=0;entryDy=0;fillColor=#f8cecc;strokeColor=#b85450;" edge="1" parent="1" source="7SNBnwVA3aRYyQUwE5cQ-26" target="7SNBnwVA3aRYyQUwE5cQ-25">
          <mxGeometry relative="1" as="geometry" />
        </mxCell>
        <mxCell id="7SNBnwVA3aRYyQUwE5cQ-26" value="e07&lt;br&gt;装备设计有缺陷或设备异常" style="rounded=0;whiteSpace=wrap;html=1;" parent="1" vertex="1">
          <mxGeometry x="-120" y="1644" width="150" height="39" as="geometry" />
        </mxCell>
        <mxCell id="Tey20wOVT-5CfHOspJdX-40" style="edgeStyle=orthogonalEdgeStyle;curved=1;rounded=0;orthogonalLoop=1;jettySize=auto;html=1;exitX=0.5;exitY=0;exitDx=0;exitDy=0;entryX=0.5;entryY=0;entryDx=0;entryDy=0;fillColor=#f8cecc;strokeColor=#b85450;" parent="1" source="7SNBnwVA3aRYyQUwE5cQ-27" target="7SNBnwVA3aRYyQUwE5cQ-31" edge="1">
          <mxGeometry relative="1" as="geometry">
            <Array as="points">
              <mxPoint x="157" y="1630" />
              <mxPoint x="547" y="1630" />
            </Array>
          </mxGeometry>
        </mxCell>
        <mxCell id="7SNBnwVA3aRYyQUwE5cQ-27" value="e08&lt;br&gt;防爆工具或电器不符合要求" style="rounded=0;whiteSpace=wrap;html=1;" parent="1" vertex="1">
          <mxGeometry x="97" y="1644" width="120" height="40" as="geometry" />
        </mxCell>
        <mxCell id="U7l6EVNEB7PfGx6SXFJ--33" style="edgeStyle=orthogonalEdgeStyle;curved=1;rounded=0;orthogonalLoop=1;jettySize=auto;html=1;exitX=0.5;exitY=1;exitDx=0;exitDy=0;entryX=0.75;entryY=1;entryDx=0;entryDy=0;fillColor=#f8cecc;strokeColor=#b85450;" edge="1" parent="1" source="7SNBnwVA3aRYyQUwE5cQ-28" target="7SNBnwVA3aRYyQUwE5cQ-30">
          <mxGeometry relative="1" as="geometry" />
        </mxCell>
        <mxCell id="7SNBnwVA3aRYyQUwE5cQ-28" value="e02&lt;br&gt;安全警示与警戒不足" style="rounded=0;whiteSpace=wrap;html=1;" parent="1" vertex="1">
          <mxGeometry x="65" y="1500" width="120" height="40" as="geometry" />
        </mxCell>
        <mxCell id="Tey20wOVT-5CfHOspJdX-44" style="edgeStyle=orthogonalEdgeStyle;curved=1;rounded=0;orthogonalLoop=1;jettySize=auto;html=1;exitX=0.5;exitY=1;exitDx=0;exitDy=0;entryX=0.75;entryY=1;entryDx=0;entryDy=0;fillColor=#f8cecc;strokeColor=#b85450;" parent="1" source="7SNBnwVA3aRYyQUwE5cQ-29" target="7SNBnwVA3aRYyQUwE5cQ-30" edge="1">
          <mxGeometry relative="1" as="geometry" />
        </mxCell>
        <mxCell id="7SNBnwVA3aRYyQUwE5cQ-29" value="e03&lt;br&gt;消防预警系统失效" style="rounded=0;whiteSpace=wrap;html=1;" parent="1" vertex="1">
          <mxGeometry x="215.5" y="1500" width="120" height="40" as="geometry" />
        </mxCell>
        <mxCell id="Tey20wOVT-5CfHOspJdX-23" style="edgeStyle=orthogonalEdgeStyle;curved=1;rounded=0;orthogonalLoop=1;jettySize=auto;html=1;exitX=0.75;exitY=0;exitDx=0;exitDy=0;entryX=0.5;entryY=1;entryDx=0;entryDy=0;fillColor=#f8cecc;strokeColor=#b85450;" parent="1" source="7SNBnwVA3aRYyQUwE5cQ-30" target="7SNBnwVA3aRYyQUwE5cQ-21" edge="1">
          <mxGeometry relative="1" as="geometry">
            <Array as="points">
              <mxPoint x="582" y="1435" />
              <mxPoint x="1135" y="1435" />
            </Array>
          </mxGeometry>
        </mxCell>
        <mxCell id="Tey20wOVT-5CfHOspJdX-45" style="edgeStyle=orthogonalEdgeStyle;curved=1;rounded=0;orthogonalLoop=1;jettySize=auto;html=1;exitX=0;exitY=0;exitDx=0;exitDy=0;entryX=0.5;entryY=1;entryDx=0;entryDy=0;fillColor=#f8cecc;strokeColor=#b85450;" parent="1" source="7SNBnwVA3aRYyQUwE5cQ-31" target="7SNBnwVA3aRYyQUwE5cQ-19" edge="1">
          <mxGeometry relative="1" as="geometry">
            <Array as="points">
              <mxPoint x="420" y="1644" />
              <mxPoint x="420" y="1450" />
              <mxPoint x="355" y="1450" />
            </Array>
          </mxGeometry>
        </mxCell>
        <mxCell id="Tey20wOVT-5CfHOspJdX-69" style="edgeStyle=orthogonalEdgeStyle;curved=1;rounded=0;orthogonalLoop=1;jettySize=auto;html=1;exitX=1;exitY=0;exitDx=0;exitDy=0;entryX=0.5;entryY=1;entryDx=0;entryDy=0;fillColor=#f8cecc;strokeColor=#b85450;" parent="1" source="7SNBnwVA3aRYyQUwE5cQ-31" target="7SNBnwVA3aRYyQUwE5cQ-20" edge="1">
          <mxGeometry relative="1" as="geometry">
            <Array as="points">
              <mxPoint x="805" y="1644" />
              <mxPoint x="805" y="1490" />
            </Array>
          </mxGeometry>
        </mxCell>
        <mxCell id="7SNBnwVA3aRYyQUwE5cQ-31" value="e10&lt;br&gt;达到一定浓度的混合物遇到着火源" style="rounded=0;whiteSpace=wrap;html=1;" parent="1" vertex="1">
          <mxGeometry x="487" y="1644" width="120" height="40" as="geometry" />
        </mxCell>
        <mxCell id="U7l6EVNEB7PfGx6SXFJ--12" style="edgeStyle=orthogonalEdgeStyle;curved=1;rounded=0;orthogonalLoop=1;jettySize=auto;html=1;exitX=0.75;exitY=0;exitDx=0;exitDy=0;entryX=0.5;entryY=1;entryDx=0;entryDy=0;fillColor=#f8cecc;strokeColor=#b85450;" edge="1" parent="1" source="7SNBnwVA3aRYyQUwE5cQ-32" target="7SNBnwVA3aRYyQUwE5cQ-21">
          <mxGeometry relative="1" as="geometry" />
        </mxCell>
        <mxCell id="7SNBnwVA3aRYyQUwE5cQ-32" value="e05&lt;br&gt;安全距离不足" style="rounded=0;whiteSpace=wrap;html=1;" parent="1" vertex="1">
          <mxGeometry x="815" y="1520" width="120" height="40" as="geometry" />
        </mxCell>
        <mxCell id="Tey20wOVT-5CfHOspJdX-43" style="edgeStyle=orthogonalEdgeStyle;curved=1;rounded=0;orthogonalLoop=1;jettySize=auto;html=1;exitX=0.5;exitY=0;exitDx=0;exitDy=0;fillColor=#f8cecc;strokeColor=#b85450;" parent="1" source="7SNBnwVA3aRYyQUwE5cQ-33" edge="1">
          <mxGeometry relative="1" as="geometry">
            <mxPoint x="580" y="1540" as="targetPoint" />
          </mxGeometry>
        </mxCell>
        <mxCell id="7SNBnwVA3aRYyQUwE5cQ-33" value="e11&lt;br&gt;物料排放处理不干净" style="rounded=0;whiteSpace=wrap;html=1;" parent="1" vertex="1">
          <mxGeometry x="710" y="1654" width="120" height="50" as="geometry" />
        </mxCell>
        <mxCell id="Tey20wOVT-5CfHOspJdX-36" style="edgeStyle=orthogonalEdgeStyle;curved=1;rounded=0;orthogonalLoop=1;jettySize=auto;html=1;exitX=0;exitY=0.5;exitDx=0;exitDy=0;entryX=0.5;entryY=0;entryDx=0;entryDy=0;fillColor=#f8cecc;strokeColor=#b85450;" parent="1" source="7SNBnwVA3aRYyQUwE5cQ-34" target="7SNBnwVA3aRYyQUwE5cQ-30" edge="1">
          <mxGeometry relative="1" as="geometry">
            <Array as="points">
              <mxPoint x="950" y="1480" />
              <mxPoint x="547" y="1480" />
            </Array>
          </mxGeometry>
        </mxCell>
        <mxCell id="7SNBnwVA3aRYyQUwE5cQ-34" value="e06&lt;br&gt;管道损坏或失效致泄露" style="rounded=0;whiteSpace=wrap;html=1;" parent="1" vertex="1">
          <mxGeometry x="950" y="1490" width="140" height="60" as="geometry" />
        </mxCell>
        <mxCell id="Tey20wOVT-5CfHOspJdX-42" style="edgeStyle=orthogonalEdgeStyle;curved=1;rounded=0;orthogonalLoop=1;jettySize=auto;html=1;exitX=0.5;exitY=0;exitDx=0;exitDy=0;entryX=0.75;entryY=1;entryDx=0;entryDy=0;fillColor=#f8cecc;strokeColor=#b85450;" parent="1" source="7SNBnwVA3aRYyQUwE5cQ-35" target="7SNBnwVA3aRYyQUwE5cQ-30" edge="1">
          <mxGeometry relative="1" as="geometry">
            <Array as="points">
              <mxPoint x="1040" y="1659" />
              <mxPoint x="1040" y="1594" />
              <mxPoint x="582" y="1594" />
            </Array>
          </mxGeometry>
        </mxCell>
        <mxCell id="7SNBnwVA3aRYyQUwE5cQ-35" value="e12&lt;br&gt;危化品储存方式或者数量不符合规定" style="rounded=0;whiteSpace=wrap;html=1;" parent="1" vertex="1">
          <mxGeometry x="975.5" y="1659" width="120" height="40" as="geometry" />
        </mxCell>
        <mxCell id="7SNBnwVA3aRYyQUwE5cQ-39" value="" style="endArrow=classic;html=1;rounded=0;entryX=0.5;entryY=0;entryDx=0;entryDy=0;exitX=0.5;exitY=1;exitDx=0;exitDy=0;fillColor=#f8cecc;strokeColor=#b85450;" parent="1" source="7SNBnwVA3aRYyQUwE5cQ-1" target="D2HSwKxdKyaoGHdWPaQV-20" edge="1">
          <mxGeometry width="50" height="50" relative="1" as="geometry">
            <mxPoint x="750" y="110" as="sourcePoint" />
            <mxPoint x="610" y="310" as="targetPoint" />
          </mxGeometry>
        </mxCell>
        <mxCell id="U7l6EVNEB7PfGx6SXFJ--9" style="edgeStyle=orthogonalEdgeStyle;curved=1;rounded=0;orthogonalLoop=1;jettySize=auto;html=1;exitX=0.5;exitY=1;exitDx=0;exitDy=0;entryX=0.75;entryY=1;entryDx=0;entryDy=0;fillColor=#f8cecc;strokeColor=#b85450;" edge="1" parent="1" source="D2HSwKxdKyaoGHdWPaQV-42" target="7SNBnwVA3aRYyQUwE5cQ-26">
          <mxGeometry relative="1" as="geometry">
            <Array as="points">
              <mxPoint x="1380" y="600" />
              <mxPoint x="1380" y="1790" />
              <mxPoint x="-7" y="1790" />
            </Array>
          </mxGeometry>
        </mxCell>
        <mxCell id="U7l6EVNEB7PfGx6SXFJ--43" style="edgeStyle=none;rounded=0;orthogonalLoop=1;jettySize=auto;html=1;exitX=0;exitY=0.5;exitDx=0;exitDy=0;entryX=1;entryY=0.5;entryDx=0;entryDy=0;fillColor=#f8cecc;strokeColor=#b85450;" edge="1" parent="1" source="D2HSwKxdKyaoGHdWPaQV-42" target="D2HSwKxdKyaoGHdWPaQV-36">
          <mxGeometry relative="1" as="geometry" />
        </mxCell>
        <mxCell id="D2HSwKxdKyaoGHdWPaQV-42" value="t07&lt;br&gt;设备巡查与管理漏洞严重" style="rounded=0;whiteSpace=wrap;html=1;" parent="1" vertex="1">
          <mxGeometry x="1238.75" y="533.5" width="77.5" height="66.5" as="geometry" />
        </mxCell>
        <mxCell id="Mtfviob82MPcd9y9G0oO-5" value="" style="endArrow=none;dashed=1;html=1;rounded=0;" parent="1" edge="1">
          <mxGeometry width="50" height="50" relative="1" as="geometry">
            <mxPoint x="-280" y="120" as="sourcePoint" />
            <mxPoint x="1500" y="120" as="targetPoint" />
          </mxGeometry>
        </mxCell>
        <mxCell id="Mtfviob82MPcd9y9G0oO-6" value="" style="endArrow=none;dashed=1;html=1;rounded=0;" parent="1" edge="1">
          <mxGeometry width="50" height="50" relative="1" as="geometry">
            <mxPoint x="-280" y="270" as="sourcePoint" />
            <mxPoint x="1500" y="270" as="targetPoint" />
          </mxGeometry>
        </mxCell>
        <mxCell id="Mtfviob82MPcd9y9G0oO-7" value="" style="endArrow=none;dashed=1;html=1;rounded=0;" parent="1" edge="1">
          <mxGeometry width="50" height="50" relative="1" as="geometry">
            <mxPoint x="-280" y="447" as="sourcePoint" />
            <mxPoint x="1500" y="447" as="targetPoint" />
          </mxGeometry>
        </mxCell>
        <mxCell id="Mtfviob82MPcd9y9G0oO-8" value="" style="endArrow=none;dashed=1;html=1;rounded=0;" parent="1" edge="1">
          <mxGeometry width="50" height="50" relative="1" as="geometry">
            <mxPoint x="-280" y="920" as="sourcePoint" />
            <mxPoint x="1500" y="920" as="targetPoint" />
          </mxGeometry>
        </mxCell>
        <mxCell id="Mtfviob82MPcd9y9G0oO-9" value="" style="endArrow=none;dashed=1;html=1;rounded=0;" parent="1" edge="1">
          <mxGeometry width="50" height="50" relative="1" as="geometry">
            <mxPoint x="-280" y="1440" as="sourcePoint" />
            <mxPoint x="1500" y="1440" as="targetPoint" />
          </mxGeometry>
        </mxCell>
        <mxCell id="Mtfviob82MPcd9y9G0oO-10" value="" style="endArrow=none;dashed=1;html=1;rounded=0;" parent="1" edge="1">
          <mxGeometry width="50" height="50" relative="1" as="geometry">
            <mxPoint x="-280" y="1813" as="sourcePoint" />
            <mxPoint x="1500" y="1813" as="targetPoint" />
          </mxGeometry>
        </mxCell>
        <mxCell id="Mtfviob82MPcd9y9G0oO-11" value="" style="endArrow=classic;html=1;rounded=0;exitX=0.5;exitY=1;exitDx=0;exitDy=0;entryX=0.5;entryY=0;entryDx=0;entryDy=0;fillColor=#f8cecc;strokeColor=#b85450;" parent="1" source="D2HSwKxdKyaoGHdWPaQV-20" target="D2HSwKxdKyaoGHdWPaQV-28" edge="1">
          <mxGeometry width="50" height="50" relative="1" as="geometry">
            <mxPoint x="460" y="330" as="sourcePoint" />
            <mxPoint x="510" y="280" as="targetPoint" />
          </mxGeometry>
        </mxCell>
        <mxCell id="Mtfviob82MPcd9y9G0oO-12" value="" style="endArrow=classic;html=1;rounded=0;exitX=0.5;exitY=1;exitDx=0;exitDy=0;entryX=0.5;entryY=0;entryDx=0;entryDy=0;fillColor=#f8cecc;strokeColor=#b85450;" parent="1" source="D2HSwKxdKyaoGHdWPaQV-21" target="D2HSwKxdKyaoGHdWPaQV-28" edge="1">
          <mxGeometry width="50" height="50" relative="1" as="geometry">
            <mxPoint x="620" y="490" as="sourcePoint" />
            <mxPoint x="670" y="440" as="targetPoint" />
          </mxGeometry>
        </mxCell>
        <mxCell id="Mtfviob82MPcd9y9G0oO-17" value="" style="endArrow=classic;html=1;rounded=0;exitX=0.5;exitY=0;exitDx=0;exitDy=0;entryX=0.5;entryY=1;entryDx=0;entryDy=0;fillColor=#f8cecc;strokeColor=#b85450;" parent="1" source="7SNBnwVA3aRYyQUwE5cQ-34" target="7SNBnwVA3aRYyQUwE5cQ-17" edge="1">
          <mxGeometry width="50" height="50" relative="1" as="geometry">
            <mxPoint x="1070" y="1400" as="sourcePoint" />
            <mxPoint x="1120" y="1350" as="targetPoint" />
          </mxGeometry>
        </mxCell>
        <mxCell id="Mtfviob82MPcd9y9G0oO-31" value="" style="endArrow=classic;html=1;rounded=0;entryX=0.5;entryY=0;entryDx=0;entryDy=0;exitX=0.5;exitY=1;exitDx=0;exitDy=0;fillColor=#f8cecc;strokeColor=#b85450;" parent="1" source="D2HSwKxdKyaoGHdWPaQV-20" target="D2HSwKxdKyaoGHdWPaQV-32" edge="1">
          <mxGeometry width="50" height="50" relative="1" as="geometry">
            <mxPoint x="238" y="250" as="sourcePoint" />
            <mxPoint x="368" y="466" as="targetPoint" />
          </mxGeometry>
        </mxCell>
        <mxCell id="Mtfviob82MPcd9y9G0oO-32" value="" style="endArrow=classic;html=1;rounded=0;entryX=0.5;entryY=0;entryDx=0;entryDy=0;exitX=0.5;exitY=1;exitDx=0;exitDy=0;fillColor=#f8cecc;strokeColor=#b85450;" parent="1" source="D2HSwKxdKyaoGHdWPaQV-20" target="cpaYwVjUg7fbwdwy47s0-7" edge="1">
          <mxGeometry width="50" height="50" relative="1" as="geometry">
            <mxPoint x="750" y="474" as="sourcePoint" />
            <mxPoint x="880" y="690" as="targetPoint" />
          </mxGeometry>
        </mxCell>
        <mxCell id="Mtfviob82MPcd9y9G0oO-34" value="" style="endArrow=classic;html=1;rounded=0;entryX=0;entryY=0.5;entryDx=0;entryDy=0;fillColor=#f8cecc;strokeColor=#b85450;" parent="1" source="D2HSwKxdKyaoGHdWPaQV-72" target="D2HSwKxdKyaoGHdWPaQV-61" edge="1">
          <mxGeometry width="50" height="50" relative="1" as="geometry">
            <mxPoint x="770" y="494" as="sourcePoint" />
            <mxPoint x="900" y="710" as="targetPoint" />
          </mxGeometry>
        </mxCell>
        <mxCell id="Mtfviob82MPcd9y9G0oO-38" value="" style="endArrow=classic;html=1;rounded=0;exitX=0.5;exitY=1;exitDx=0;exitDy=0;entryX=0.5;entryY=0;entryDx=0;entryDy=0;fillColor=#f8cecc;strokeColor=#b85450;" parent="1" source="D2HSwKxdKyaoGHdWPaQV-68" target="D2HSwKxdKyaoGHdWPaQV-61" edge="1">
          <mxGeometry width="50" height="50" relative="1" as="geometry">
            <mxPoint x="400" y="1090" as="sourcePoint" />
            <mxPoint x="450" y="1040" as="targetPoint" />
          </mxGeometry>
        </mxCell>
        <mxCell id="Mtfviob82MPcd9y9G0oO-41" value="" style="endArrow=classic;html=1;rounded=0;exitX=0;exitY=1;exitDx=0;exitDy=0;entryX=1;entryY=0.25;entryDx=0;entryDy=0;fillColor=#f8cecc;strokeColor=#b85450;" parent="1" source="cpaYwVjUg7fbwdwy47s0-15" target="D2HSwKxdKyaoGHdWPaQV-61" edge="1">
          <mxGeometry width="50" height="50" relative="1" as="geometry">
            <mxPoint x="250" y="1090" as="sourcePoint" />
            <mxPoint x="300" y="1040" as="targetPoint" />
          </mxGeometry>
        </mxCell>
        <mxCell id="Mtfviob82MPcd9y9G0oO-44" value="" style="endArrow=classic;html=1;rounded=0;entryX=0.5;entryY=0;entryDx=0;entryDy=0;exitX=0.5;exitY=1;exitDx=0;exitDy=0;" parent="1" source="cpaYwVjUg7fbwdwy47s0-7" target="D2HSwKxdKyaoGHdWPaQV-35" edge="1">
          <mxGeometry width="50" height="50" relative="1" as="geometry">
            <mxPoint x="710" y="430" as="sourcePoint" />
            <mxPoint x="790" y="530" as="targetPoint" />
          </mxGeometry>
        </mxCell>
        <mxCell id="Mtfviob82MPcd9y9G0oO-45" value="" style="endArrow=classic;html=1;rounded=0;exitX=0.5;exitY=1;exitDx=0;exitDy=0;entryX=0;entryY=0.5;entryDx=0;entryDy=0;fillColor=#f8cecc;strokeColor=#b85450;" parent="1" source="D2HSwKxdKyaoGHdWPaQV-65" target="D2HSwKxdKyaoGHdWPaQV-61" edge="1">
          <mxGeometry width="50" height="50" relative="1" as="geometry">
            <mxPoint x="200" y="990" as="sourcePoint" />
            <mxPoint x="250" y="940" as="targetPoint" />
          </mxGeometry>
        </mxCell>
        <mxCell id="Mtfviob82MPcd9y9G0oO-46" value="" style="endArrow=classic;html=1;rounded=0;exitX=0.5;exitY=1;exitDx=0;exitDy=0;entryX=0.5;entryY=0;entryDx=0;entryDy=0;fillColor=#f8cecc;strokeColor=#b85450;" parent="1" source="D2HSwKxdKyaoGHdWPaQV-32" target="D2HSwKxdKyaoGHdWPaQV-71" edge="1">
          <mxGeometry width="50" height="50" relative="1" as="geometry">
            <mxPoint x="470" y="750" as="sourcePoint" />
            <mxPoint x="520" y="700" as="targetPoint" />
          </mxGeometry>
        </mxCell>
        <mxCell id="Mtfviob82MPcd9y9G0oO-52" value="" style="endArrow=classic;html=1;rounded=0;exitX=0.5;exitY=1;exitDx=0;exitDy=0;entryX=0.5;entryY=0;entryDx=0;entryDy=0;fillColor=#f8cecc;strokeColor=#b85450;" parent="1" source="D2HSwKxdKyaoGHdWPaQV-44" target="D2HSwKxdKyaoGHdWPaQV-72" edge="1">
          <mxGeometry width="50" height="50" relative="1" as="geometry">
            <mxPoint x="840" y="860" as="sourcePoint" />
            <mxPoint x="890" y="810" as="targetPoint" />
          </mxGeometry>
        </mxCell>
        <mxCell id="Mtfviob82MPcd9y9G0oO-53" value="" style="endArrow=classic;html=1;rounded=0;exitX=0.5;exitY=1;exitDx=0;exitDy=0;entryX=0.5;entryY=0;entryDx=0;entryDy=0;fillColor=#f8cecc;strokeColor=#b85450;" parent="1" source="D2HSwKxdKyaoGHdWPaQV-28" target="D2HSwKxdKyaoGHdWPaQV-44" edge="1">
          <mxGeometry width="50" height="50" relative="1" as="geometry">
            <mxPoint x="530" y="610" as="sourcePoint" />
            <mxPoint x="169" y="758" as="targetPoint" />
          </mxGeometry>
        </mxCell>
        <mxCell id="Mtfviob82MPcd9y9G0oO-56" value="" style="endArrow=classic;html=1;rounded=0;exitX=0.5;exitY=1;exitDx=0;exitDy=0;entryX=0.5;entryY=0;entryDx=0;entryDy=0;fillColor=#f8cecc;strokeColor=#b85450;edgeStyle=orthogonalEdgeStyle;curved=1;" parent="1" source="D2HSwKxdKyaoGHdWPaQV-60" target="7SNBnwVA3aRYyQUwE5cQ-21" edge="1">
          <mxGeometry width="50" height="50" relative="1" as="geometry">
            <mxPoint x="110" y="1190" as="sourcePoint" />
            <mxPoint x="160" y="1140" as="targetPoint" />
            <Array as="points">
              <mxPoint x="776" y="1060" />
              <mxPoint x="1135" y="1060" />
            </Array>
          </mxGeometry>
        </mxCell>
        <mxCell id="Mtfviob82MPcd9y9G0oO-57" value="" style="endArrow=classic;html=1;rounded=0;exitX=0.5;exitY=1;exitDx=0;exitDy=0;entryX=0.5;entryY=0;entryDx=0;entryDy=0;fillColor=#f8cecc;strokeColor=#b85450;" parent="1" source="cpaYwVjUg7fbwdwy47s0-7" target="D2HSwKxdKyaoGHdWPaQV-46" edge="1">
          <mxGeometry width="50" height="50" relative="1" as="geometry">
            <mxPoint x="380" y="780" as="sourcePoint" />
            <mxPoint x="690" y="730" as="targetPoint" />
          </mxGeometry>
        </mxCell>
        <mxCell id="Mtfviob82MPcd9y9G0oO-60" value="" style="endArrow=classic;html=1;rounded=0;exitX=0.5;exitY=1;exitDx=0;exitDy=0;entryX=0.5;entryY=0;entryDx=0;entryDy=0;fillColor=#f8cecc;strokeColor=#b85450;" parent="1" source="D2HSwKxdKyaoGHdWPaQV-28" target="D2HSwKxdKyaoGHdWPaQV-31" edge="1">
          <mxGeometry width="50" height="50" relative="1" as="geometry">
            <mxPoint x="310" y="570" as="sourcePoint" />
            <mxPoint x="360" y="520" as="targetPoint" />
          </mxGeometry>
        </mxCell>
        <mxCell id="Mtfviob82MPcd9y9G0oO-67" value="" style="endArrow=classic;html=1;rounded=0;exitX=0.5;exitY=1;exitDx=0;exitDy=0;entryX=0.5;entryY=0;entryDx=0;entryDy=0;fillColor=#f8cecc;strokeColor=#b85450;" parent="1" source="D2HSwKxdKyaoGHdWPaQV-42" target="D2HSwKxdKyaoGHdWPaQV-47" edge="1">
          <mxGeometry width="50" height="50" relative="1" as="geometry">
            <mxPoint x="870" y="410" as="sourcePoint" />
            <mxPoint x="920" y="360" as="targetPoint" />
          </mxGeometry>
        </mxCell>
        <mxCell id="-YzqSGN3mpUyqdpqYy5V-1" value="" style="endArrow=classic;html=1;rounded=0;exitX=0.5;exitY=1;exitDx=0;exitDy=0;entryX=0.5;entryY=0;entryDx=0;entryDy=0;fillColor=#f8cecc;strokeColor=#b85450;" parent="1" source="D2HSwKxdKyaoGHdWPaQV-28" target="D2HSwKxdKyaoGHdWPaQV-32" edge="1">
          <mxGeometry width="50" height="50" relative="1" as="geometry">
            <mxPoint x="443.5800000000007" y="420.02" as="sourcePoint" />
            <mxPoint x="448.93825000000004" y="550" as="targetPoint" />
          </mxGeometry>
        </mxCell>
        <mxCell id="-YzqSGN3mpUyqdpqYy5V-3" value="" style="endArrow=classic;html=1;rounded=0;exitX=0.5;exitY=1;exitDx=0;exitDy=0;fillColor=#f8cecc;strokeColor=#b85450;" parent="1" source="D2HSwKxdKyaoGHdWPaQV-32" target="cpaYwVjUg7fbwdwy47s0-15" edge="1">
          <mxGeometry width="50" height="50" relative="1" as="geometry">
            <mxPoint x="260" y="760" as="sourcePoint" />
            <mxPoint x="310" y="710" as="targetPoint" />
          </mxGeometry>
        </mxCell>
        <mxCell id="-YzqSGN3mpUyqdpqYy5V-8" value="" style="endArrow=classic;html=1;rounded=0;exitX=0.5;exitY=1;exitDx=0;exitDy=0;entryX=0.5;entryY=0;entryDx=0;entryDy=0;fillColor=#f8cecc;strokeColor=#b85450;" parent="1" source="D2HSwKxdKyaoGHdWPaQV-71" target="D2HSwKxdKyaoGHdWPaQV-61" edge="1">
          <mxGeometry width="50" height="50" relative="1" as="geometry">
            <mxPoint x="510" y="1040" as="sourcePoint" />
            <mxPoint x="438" y="1140" as="targetPoint" />
          </mxGeometry>
        </mxCell>
        <mxCell id="-YzqSGN3mpUyqdpqYy5V-10" value="" style="endArrow=classic;html=1;rounded=0;exitX=0.5;exitY=1;exitDx=0;exitDy=0;entryX=0.5;entryY=0;entryDx=0;entryDy=0;fillColor=#f8cecc;strokeColor=#b85450;" parent="1" source="7SNBnwVA3aRYyQUwE5cQ-1" target="D2HSwKxdKyaoGHdWPaQV-21" edge="1">
          <mxGeometry width="50" height="50" relative="1" as="geometry">
            <mxPoint x="640" y="190" as="sourcePoint" />
            <mxPoint x="690" y="140" as="targetPoint" />
          </mxGeometry>
        </mxCell>
        <mxCell id="-YzqSGN3mpUyqdpqYy5V-12" value="" style="endArrow=classic;html=1;rounded=0;exitX=0.5;exitY=1;exitDx=0;exitDy=0;entryX=0.5;entryY=0;entryDx=0;entryDy=0;fillColor=#f8cecc;strokeColor=#b85450;" parent="1" source="D2HSwKxdKyaoGHdWPaQV-28" target="7SNBnwVA3aRYyQUwE5cQ-14" edge="1">
          <mxGeometry width="50" height="50" relative="1" as="geometry">
            <mxPoint x="250" y="770" as="sourcePoint" />
            <mxPoint x="300" y="720" as="targetPoint" />
          </mxGeometry>
        </mxCell>
        <mxCell id="-YzqSGN3mpUyqdpqYy5V-15" value="" style="endArrow=classic;html=1;rounded=0;exitX=0.5;exitY=1;exitDx=0;exitDy=0;entryX=0.5;entryY=0;entryDx=0;entryDy=0;fillColor=#f8cecc;strokeColor=#b85450;" parent="1" source="D2HSwKxdKyaoGHdWPaQV-65" target="D2HSwKxdKyaoGHdWPaQV-72" edge="1">
          <mxGeometry width="50" height="50" relative="1" as="geometry">
            <mxPoint x="250" y="1080" as="sourcePoint" />
            <mxPoint x="300" y="1030" as="targetPoint" />
          </mxGeometry>
        </mxCell>
        <mxCell id="-YzqSGN3mpUyqdpqYy5V-16" value="" style="endArrow=classic;html=1;rounded=0;exitX=0.5;exitY=1;exitDx=0;exitDy=0;entryX=0.5;entryY=0;entryDx=0;entryDy=0;fillColor=#f8cecc;strokeColor=#b85450;" parent="1" source="D2HSwKxdKyaoGHdWPaQV-32" target="D2HSwKxdKyaoGHdWPaQV-65" edge="1">
          <mxGeometry width="50" height="50" relative="1" as="geometry">
            <mxPoint x="50" y="920" as="sourcePoint" />
            <mxPoint x="100" y="870" as="targetPoint" />
          </mxGeometry>
        </mxCell>
        <mxCell id="-YzqSGN3mpUyqdpqYy5V-17" value="" style="endArrow=classic;html=1;rounded=0;exitX=0.5;exitY=1;exitDx=0;exitDy=0;entryX=0.5;entryY=0;entryDx=0;entryDy=0;fillColor=#f8cecc;strokeColor=#b85450;" parent="1" source="D2HSwKxdKyaoGHdWPaQV-28" target="7SNBnwVA3aRYyQUwE5cQ-10" edge="1">
          <mxGeometry width="50" height="50" relative="1" as="geometry">
            <mxPoint x="70" y="630" as="sourcePoint" />
            <mxPoint x="220" y="640" as="targetPoint" />
          </mxGeometry>
        </mxCell>
        <mxCell id="-YzqSGN3mpUyqdpqYy5V-18" value="" style="endArrow=classic;html=1;rounded=0;exitX=0.5;exitY=1;exitDx=0;exitDy=0;entryX=0.5;entryY=0;entryDx=0;entryDy=0;fillColor=#f8cecc;strokeColor=#b85450;" parent="1" source="D2HSwKxdKyaoGHdWPaQV-28" target="D2HSwKxdKyaoGHdWPaQV-46" edge="1">
          <mxGeometry width="50" height="50" relative="1" as="geometry">
            <mxPoint x="50" y="780" as="sourcePoint" />
            <mxPoint x="100" y="730" as="targetPoint" />
          </mxGeometry>
        </mxCell>
        <mxCell id="-YzqSGN3mpUyqdpqYy5V-27" value="" style="endArrow=classic;html=1;rounded=0;exitX=0.5;exitY=1;exitDx=0;exitDy=0;entryX=0.5;entryY=0;entryDx=0;entryDy=0;fillColor=#f8cecc;strokeColor=#b85450;" parent="1" source="D2HSwKxdKyaoGHdWPaQV-28" target="D2HSwKxdKyaoGHdWPaQV-35" edge="1">
          <mxGeometry width="50" height="50" relative="1" as="geometry">
            <mxPoint x="60" y="640" as="sourcePoint" />
            <mxPoint x="110" y="590" as="targetPoint" />
          </mxGeometry>
        </mxCell>
        <mxCell id="-YzqSGN3mpUyqdpqYy5V-40" value="" style="endArrow=classic;html=1;rounded=0;exitX=0.5;exitY=1;exitDx=0;exitDy=0;entryX=0.5;entryY=0;entryDx=0;entryDy=0;fillColor=#f8cecc;strokeColor=#b85450;" parent="1" source="D2HSwKxdKyaoGHdWPaQV-61" target="7SNBnwVA3aRYyQUwE5cQ-20" edge="1">
          <mxGeometry width="50" height="50" relative="1" as="geometry">
            <mxPoint x="170" y="1200" as="sourcePoint" />
            <mxPoint x="780" y="1290" as="targetPoint" />
            <Array as="points" />
          </mxGeometry>
        </mxCell>
        <mxCell id="Tey20wOVT-5CfHOspJdX-10" value="" style="endArrow=classic;html=1;rounded=0;curved=1;exitX=1;exitY=0.5;exitDx=0;exitDy=0;entryX=0;entryY=0.5;entryDx=0;entryDy=0;fillColor=#f8cecc;strokeColor=#b85450;" parent="1" source="D2HSwKxdKyaoGHdWPaQV-16" target="7SNBnwVA3aRYyQUwE5cQ-1" edge="1">
          <mxGeometry width="50" height="50" relative="1" as="geometry">
            <mxPoint x="170" y="230" as="sourcePoint" />
            <mxPoint x="220" y="180" as="targetPoint" />
          </mxGeometry>
        </mxCell>
        <mxCell id="Tey20wOVT-5CfHOspJdX-11" value="" style="endArrow=classic;html=1;rounded=0;curved=1;entryX=0.5;entryY=0;entryDx=0;entryDy=0;exitX=0.5;exitY=1;exitDx=0;exitDy=0;fillColor=#f8cecc;strokeColor=#b85450;" parent="1" source="7SNBnwVA3aRYyQUwE5cQ-1" target="7SNBnwVA3aRYyQUwE5cQ-2" edge="1">
          <mxGeometry width="50" height="50" relative="1" as="geometry">
            <mxPoint x="740" y="70" as="sourcePoint" />
            <mxPoint x="950" y="40" as="targetPoint" />
          </mxGeometry>
        </mxCell>
        <mxCell id="Tey20wOVT-5CfHOspJdX-39" style="edgeStyle=orthogonalEdgeStyle;curved=1;rounded=0;orthogonalLoop=1;jettySize=auto;html=1;exitX=0.5;exitY=1;exitDx=0;exitDy=0;entryX=0.5;entryY=0;entryDx=0;entryDy=0;fillColor=#f8cecc;strokeColor=#b85450;" parent="1" source="7SNBnwVA3aRYyQUwE5cQ-30" target="7SNBnwVA3aRYyQUwE5cQ-31" edge="1">
          <mxGeometry relative="1" as="geometry" />
        </mxCell>
        <mxCell id="U7l6EVNEB7PfGx6SXFJ--7" style="edgeStyle=orthogonalEdgeStyle;curved=1;rounded=0;orthogonalLoop=1;jettySize=auto;html=1;exitX=0.75;exitY=0;exitDx=0;exitDy=0;entryX=0.5;entryY=1;entryDx=0;entryDy=0;fillColor=#f8cecc;strokeColor=#b85450;" edge="1" parent="1" source="7SNBnwVA3aRYyQUwE5cQ-30" target="7SNBnwVA3aRYyQUwE5cQ-19">
          <mxGeometry relative="1" as="geometry" />
        </mxCell>
        <mxCell id="U7l6EVNEB7PfGx6SXFJ--10" style="edgeStyle=orthogonalEdgeStyle;curved=1;rounded=0;orthogonalLoop=1;jettySize=auto;html=1;exitX=0.75;exitY=0;exitDx=0;exitDy=0;entryX=0.5;entryY=0;entryDx=0;entryDy=0;fillColor=#f8cecc;strokeColor=#b85450;" edge="1" parent="1" source="7SNBnwVA3aRYyQUwE5cQ-30" target="7SNBnwVA3aRYyQUwE5cQ-32">
          <mxGeometry relative="1" as="geometry" />
        </mxCell>
        <mxCell id="U7l6EVNEB7PfGx6SXFJ--30" style="edgeStyle=orthogonalEdgeStyle;curved=1;rounded=0;orthogonalLoop=1;jettySize=auto;html=1;exitX=0.75;exitY=0;exitDx=0;exitDy=0;entryX=0.5;entryY=1;entryDx=0;entryDy=0;fillColor=#f8cecc;strokeColor=#b85450;" edge="1" parent="1" source="7SNBnwVA3aRYyQUwE5cQ-30" target="7SNBnwVA3aRYyQUwE5cQ-20">
          <mxGeometry relative="1" as="geometry" />
        </mxCell>
        <mxCell id="7SNBnwVA3aRYyQUwE5cQ-30" value="e04&lt;br&gt;危化品量或有毒气体超标" style="rounded=0;whiteSpace=wrap;html=1;" parent="1" vertex="1">
          <mxGeometry x="477.25" y="1510" width="139.5" height="40" as="geometry" />
        </mxCell>
        <mxCell id="Tey20wOVT-5CfHOspJdX-48" value="" style="endArrow=classic;html=1;rounded=0;entryX=0.5;entryY=0;entryDx=0;entryDy=0;fillColor=#f8cecc;strokeColor=#b85450;" parent="1" target="D2HSwKxdKyaoGHdWPaQV-35" edge="1">
          <mxGeometry width="50" height="50" relative="1" as="geometry">
            <mxPoint x="1046" y="400" as="sourcePoint" />
            <mxPoint x="-85" y="707" as="targetPoint" />
          </mxGeometry>
        </mxCell>
        <mxCell id="D2HSwKxdKyaoGHdWPaQV-35" value="t03&lt;br&gt;检维修与动火作业审批管理不足" style="rounded=0;whiteSpace=wrap;html=1;" parent="1" vertex="1">
          <mxGeometry x="195" y="580" width="97" height="60" as="geometry" />
        </mxCell>
        <mxCell id="Tey20wOVT-5CfHOspJdX-49" value="" style="endArrow=classic;html=1;rounded=0;entryX=0;entryY=0.5;entryDx=0;entryDy=0;exitX=1;exitY=0;exitDx=0;exitDy=0;fillColor=#f8cecc;strokeColor=#b85450;" parent="1" source="D2HSwKxdKyaoGHdWPaQV-46" target="D2HSwKxdKyaoGHdWPaQV-47" edge="1">
          <mxGeometry width="50" height="50" relative="1" as="geometry">
            <mxPoint x="700" y="870" as="sourcePoint" />
            <mxPoint x="365" y="1113" as="targetPoint" />
          </mxGeometry>
        </mxCell>
        <mxCell id="D2HSwKxdKyaoGHdWPaQV-47" value="t12&lt;br&gt;重大危险源管控和防范措施有缺陷" style="rounded=0;whiteSpace=wrap;html=1;" parent="1" vertex="1">
          <mxGeometry x="830" y="723" width="100" height="50" as="geometry" />
        </mxCell>
        <mxCell id="7SNBnwVA3aRYyQUwE5cQ-11" value="t06&lt;br&gt;事故整改措施不落实" style="rounded=0;whiteSpace=wrap;html=1;" parent="1" vertex="1">
          <mxGeometry x="1190" y="660" width="70" height="63" as="geometry" />
        </mxCell>
        <mxCell id="Tey20wOVT-5CfHOspJdX-52" value="" style="endArrow=classic;html=1;rounded=0;exitX=0.5;exitY=1;exitDx=0;exitDy=0;entryX=0.5;entryY=0;entryDx=0;entryDy=0;fillColor=#f8cecc;strokeColor=#b85450;" parent="1" source="cpaYwVjUg7fbwdwy47s0-7" target="7SNBnwVA3aRYyQUwE5cQ-10" edge="1">
          <mxGeometry width="50" height="50" relative="1" as="geometry">
            <mxPoint x="1046" y="400" as="sourcePoint" />
            <mxPoint x="741" y="789" as="targetPoint" />
          </mxGeometry>
        </mxCell>
        <mxCell id="7SNBnwVA3aRYyQUwE5cQ-10" value="t05&lt;br&gt;安全意识薄弱和隐患排查治理力度不够" style="rounded=0;whiteSpace=wrap;html=1;" parent="1" vertex="1">
          <mxGeometry x="995.75" y="510" width="79.5" height="60" as="geometry" />
        </mxCell>
        <mxCell id="7SNBnwVA3aRYyQUwE5cQ-14" value="t14&lt;br&gt;工艺流程管理存在漏洞" style="rounded=0;whiteSpace=wrap;html=1;" parent="1" vertex="1">
          <mxGeometry x="1130.25" y="782" width="129.75" height="48" as="geometry" />
        </mxCell>
        <mxCell id="U7l6EVNEB7PfGx6SXFJ--37" style="edgeStyle=orthogonalEdgeStyle;curved=1;rounded=0;orthogonalLoop=1;jettySize=auto;html=1;exitX=0.5;exitY=1;exitDx=0;exitDy=0;fillColor=#f8cecc;strokeColor=#b85450;" edge="1" parent="1" source="D2HSwKxdKyaoGHdWPaQV-46">
          <mxGeometry relative="1" as="geometry">
            <mxPoint x="30" y="970" as="targetPoint" />
          </mxGeometry>
        </mxCell>
        <mxCell id="D2HSwKxdKyaoGHdWPaQV-46" value="t11&lt;br&gt;开展风险评估和危险源辨识评估工作不到位" style="rounded=0;whiteSpace=wrap;html=1;" parent="1" vertex="1">
          <mxGeometry x="629" y="730" width="90.5" height="67" as="geometry" />
        </mxCell>
        <mxCell id="D2HSwKxdKyaoGHdWPaQV-7" value="&lt;font style=&quot;font-size: 15px;&quot;&gt;监管机构与协会&lt;/font&gt;" style="text;html=1;strokeColor=none;fillColor=none;align=center;verticalAlign=middle;whiteSpace=wrap;rounded=0;" parent="1" vertex="1">
          <mxGeometry x="1380" y="240" width="119" height="30" as="geometry" />
        </mxCell>
        <mxCell id="Tey20wOVT-5CfHOspJdX-56" value="" style="endArrow=none;dashed=1;html=1;rounded=0;" parent="1" edge="1">
          <mxGeometry width="50" height="50" relative="1" as="geometry">
            <mxPoint x="-280" y="10" as="sourcePoint" />
            <mxPoint x="1500" y="10" as="targetPoint" />
          </mxGeometry>
        </mxCell>
        <mxCell id="Tey20wOVT-5CfHOspJdX-57" value="" style="endArrow=none;dashed=1;html=1;rounded=0;" parent="1" edge="1">
          <mxGeometry width="50" height="50" relative="1" as="geometry">
            <mxPoint x="-280" y="10" as="sourcePoint" />
            <mxPoint x="-280" y="1760" as="targetPoint" />
          </mxGeometry>
        </mxCell>
        <mxCell id="Tey20wOVT-5CfHOspJdX-58" value="" style="endArrow=none;dashed=1;html=1;rounded=0;" parent="1" edge="1">
          <mxGeometry width="50" height="50" relative="1" as="geometry">
            <mxPoint x="1500" y="10" as="sourcePoint" />
            <mxPoint x="1500" y="1770" as="targetPoint" />
          </mxGeometry>
        </mxCell>
        <mxCell id="Tey20wOVT-5CfHOspJdX-60" value="" style="endArrow=classic;html=1;rounded=0;exitX=0.5;exitY=1;exitDx=0;exitDy=0;entryX=0.5;entryY=0;entryDx=0;entryDy=0;fillColor=#f8cecc;strokeColor=#b85450;" parent="1" source="D2HSwKxdKyaoGHdWPaQV-28" target="D2HSwKxdKyaoGHdWPaQV-36" edge="1">
          <mxGeometry width="50" height="50" relative="1" as="geometry">
            <mxPoint x="553" y="400" as="sourcePoint" />
            <mxPoint x="827" y="770" as="targetPoint" />
          </mxGeometry>
        </mxCell>
        <mxCell id="D2HSwKxdKyaoGHdWPaQV-36" value="t04&lt;br&gt;未按规定逐步完善修订并落实操作规程" style="rounded=0;whiteSpace=wrap;html=1;" parent="1" vertex="1">
          <mxGeometry x="394" y="626" width="80" height="70" as="geometry" />
        </mxCell>
        <mxCell id="Tey20wOVT-5CfHOspJdX-95" style="edgeStyle=orthogonalEdgeStyle;curved=1;rounded=0;orthogonalLoop=1;jettySize=auto;html=1;exitX=0.75;exitY=0;exitDx=0;exitDy=0;entryX=0.5;entryY=0;entryDx=0;entryDy=0;fillColor=#f8cecc;strokeColor=#b85450;" parent="1" source="D2HSwKxdKyaoGHdWPaQV-28" target="7SNBnwVA3aRYyQUwE5cQ-3" edge="1">
          <mxGeometry relative="1" as="geometry">
            <Array as="points">
              <mxPoint x="609" y="300" />
              <mxPoint x="1265" y="300" />
            </Array>
          </mxGeometry>
        </mxCell>
        <mxCell id="Tey20wOVT-5CfHOspJdX-25" style="edgeStyle=orthogonalEdgeStyle;curved=1;rounded=0;orthogonalLoop=1;jettySize=auto;html=1;exitX=1;exitY=0.5;exitDx=0;exitDy=0;entryX=0;entryY=0.5;entryDx=0;entryDy=0;movable=1;resizable=1;rotatable=1;deletable=1;editable=1;locked=0;connectable=1;fillColor=#f8cecc;strokeColor=#b85450;" parent="1" source="D2HSwKxdKyaoGHdWPaQV-26" target="cpaYwVjUg7fbwdwy47s0-5" edge="1">
          <mxGeometry relative="1" as="geometry" />
        </mxCell>
      </root>
    </mxGraphModel>
  </diagram>
</mxfile>
